<?xml version="1.0" encoding="UTF-8"?>
<svg xmlns="http://www.w3.org/2000/svg" xmlns:xlink="http://www.w3.org/1999/xlink" width="24px" height="24px" viewBox="0 0 24 24" version="1.1">
<g id="surface1">
<path style=" stroke:none;fill-rule:nonzero;fill:rgb(3.529412%,18.039216%,12.54902%);fill-opacity:1;" d="M 2.625 0 L 21.375 0 C 22.824219 0 24 1.175781 24 2.625 L 24 21.375 C 24 22.824219 22.824219 24 21.375 24 L 2.625 24 C 1.175781 24 0 22.824219 0 21.375 L 0 2.625 C 0 1.175781 1.175781 0 2.625 0 Z M 2.625 0 "/>
<path style=" stroke:none;fill-rule:nonzero;fill:rgb(100%,100%,99.215686%);fill-opacity:1;" d="M 17.472656 8.832031 L 17.472656 15.039062 C 17.472656 17.179688 17.316406 18.207031 16.847656 19.09375 C 16.410156 19.945312 15.839844 20.484375 14.65625 21.074219 L 12.167969 19.890625 C 13.351562 19.335938 13.925781 18.847656 14.289062 18.101562 C 14.671875 17.335938 14.792969 16.449219 14.792969 14.117188 L 14.792969 8.832031 Z M 13.210938 4.695312 L 13.210938 17.09375 C 11.839844 17.351562 10.828125 17.457031 9.734375 17.457031 C 6.464844 17.457031 4.757812 15.980469 4.757812 13.144531 C 4.757812 10.414062 6.570312 8.640625 9.367188 8.640625 C 9.804688 8.640625 10.132812 8.675781 10.535156 8.777344 L 10.535156 4.695312 Z M 9.628906 10.796875 C 8.273438 10.796875 7.488281 11.632812 7.488281 13.09375 C 7.488281 14.519531 8.238281 15.300781 9.613281 15.300781 C 9.90625 15.300781 10.152344 15.285156 10.535156 15.230469 L 10.535156 10.933594 C 10.21875 10.832031 9.960938 10.796875 9.628906 10.796875 Z M 17.472656 4.710938 L 17.472656 7.457031 L 14.792969 7.457031 L 14.792969 4.710938 Z M 17.472656 4.710938 "/>
</g>
</svg>
