<?xml version="1.0" encoding="UTF-8"?>
<svg xmlns="http://www.w3.org/2000/svg" xmlns:xlink="http://www.w3.org/1999/xlink" width="24px" height="24px" viewBox="0 0 24 24" version="1.1">
<g id="surface1">
<path style=" stroke:none;fill-rule:nonzero;fill:rgb(54.901963%,78.431374%,29.411766%);fill-opacity:1;" d="M 11.023438 0.304688 C 11.613281 -0.0351562 12.386719 -0.0351562 12.976562 0.304688 C 15.957031 1.988281 18.933594 3.667969 21.914062 5.351562 C 22.472656 5.667969 22.847656 6.289062 22.84375 6.9375 L 22.84375 17.0625 C 22.847656 17.734375 22.433594 18.371094 21.84375 18.679688 C 18.875 20.351562 15.910156 22.027344 12.941406 23.703125 C 12.335938 24.046875 11.546875 24.023438 10.960938 23.648438 C 10.074219 23.132812 9.179688 22.617188 8.289062 22.101562 C 8.109375 21.996094 7.902344 21.90625 7.777344 21.730469 C 7.890625 21.578125 8.09375 21.558594 8.257812 21.492188 C 8.628906 21.375 8.96875 21.183594 9.3125 21 C 9.398438 20.941406 9.503906 20.964844 9.585938 21.015625 C 10.347656 21.453125 11.101562 21.902344 11.863281 22.335938 C 12.027344 22.429688 12.191406 22.304688 12.332031 22.226562 C 15.246094 20.582031 18.160156 18.941406 21.074219 17.292969 C 21.179688 17.242188 21.242188 17.125 21.230469 17.007812 C 21.234375 13.667969 21.234375 10.328125 21.234375 6.988281 C 21.246094 6.855469 21.167969 6.730469 21.046875 6.675781 C 18.089844 5.007812 15.132812 3.339844 12.175781 1.675781 C 12.070312 1.601562 11.929688 1.601562 11.824219 1.675781 C 8.867188 3.339844 5.910156 5.011719 2.953125 6.675781 C 2.832031 6.730469 2.753906 6.851562 2.765625 6.988281 C 2.765625 10.328125 2.765625 13.667969 2.765625 17.007812 C 2.757812 17.128906 2.820312 17.238281 2.925781 17.289062 C 3.714844 17.738281 4.507812 18.183594 5.296875 18.628906 C 5.742188 18.867188 6.289062 19.011719 6.777344 18.828125 C 7.210938 18.671875 7.515625 18.230469 7.507812 17.769531 C 7.511719 14.449219 7.503906 11.128906 7.507812 7.808594 C 7.5 7.660156 7.636719 7.539062 7.78125 7.554688 C 8.160156 7.550781 8.539062 7.546875 8.917969 7.554688 C 9.078125 7.550781 9.1875 7.710938 9.167969 7.859375 C 9.164062 11.199219 9.171875 14.542969 9.164062 17.882812 C 9.164062 18.773438 8.800781 19.742188 7.976562 20.179688 C 6.960938 20.703125 5.707031 20.59375 4.703125 20.089844 C 3.835938 19.65625 3.007812 19.144531 2.15625 18.679688 C 1.5625 18.375 1.152344 17.734375 1.15625 17.0625 L 1.15625 6.9375 C 1.152344 6.277344 1.542969 5.640625 2.117188 5.332031 C 5.085938 3.65625 8.054688 1.980469 11.023438 0.304688 Z M 11.023438 0.304688 "/>
<path style=" stroke:none;fill-rule:nonzero;fill:rgb(54.901963%,78.431374%,29.411766%);fill-opacity:1;" d="M 13.609375 7.316406 C 14.90625 7.234375 16.292969 7.269531 17.457031 7.90625 C 18.359375 8.394531 18.859375 9.421875 18.875 10.421875 C 18.847656 10.558594 18.707031 10.632812 18.578125 10.625 C 18.203125 10.621094 17.828125 10.628906 17.453125 10.621094 C 17.292969 10.625 17.199219 10.480469 17.179688 10.339844 C 17.070312 9.859375 16.808594 9.386719 16.359375 9.152344 C 15.667969 8.808594 14.863281 8.824219 14.109375 8.832031 C 13.554688 8.859375 12.964844 8.910156 12.496094 9.234375 C 12.136719 9.476562 12.027344 9.972656 12.15625 10.375 C 12.277344 10.660156 12.609375 10.753906 12.878906 10.839844 C 14.4375 11.246094 16.09375 11.207031 17.621094 11.742188 C 18.257812 11.960938 18.875 12.386719 19.09375 13.050781 C 19.375 13.9375 19.253906 15 18.621094 15.714844 C 18.105469 16.304688 17.359375 16.621094 16.613281 16.796875 C 15.625 17.015625 14.59375 17.023438 13.585938 16.925781 C 12.640625 16.816406 11.65625 16.566406 10.925781 15.921875 C 10.300781 15.378906 9.996094 14.535156 10.027344 13.71875 C 10.03125 13.582031 10.171875 13.484375 10.300781 13.496094 C 10.679688 13.492188 11.058594 13.492188 11.4375 13.496094 C 11.589844 13.488281 11.699219 13.617188 11.707031 13.757812 C 11.777344 14.214844 11.949219 14.695312 12.347656 14.964844 C 13.117188 15.460938 14.082031 15.429688 14.960938 15.441406 C 15.691406 15.410156 16.507812 15.398438 17.105469 14.917969 C 17.417969 14.644531 17.511719 14.183594 17.425781 13.789062 C 17.332031 13.453125 16.984375 13.296875 16.683594 13.195312 C 15.144531 12.710938 13.472656 12.886719 11.949219 12.335938 C 11.328125 12.117188 10.730469 11.703125 10.492188 11.066406 C 10.160156 10.167969 10.3125 9.050781 11.011719 8.363281 C 11.691406 7.675781 12.675781 7.414062 13.609375 7.316406 Z M 13.609375 7.316406 "/>
</g>
</svg>
